<svg xmlns="http://www.w3.org/2000/svg" viewBox="0 0 920 180" width="100%" height="auto" style="max-width: 920px; font-family: -apple-system, BlinkMacSystemFont, Consolas, 'Segoe UI', monospace;">
  <defs>
    <filter id="build-shadow" x="0%" y="0%" width="120%" height="120%">
      <feDropShadow dx="3.5" dy="3.5" stdDeviation="0" flood-color="#121212" flood-opacity="1"/>
    </filter>
  </defs>

  <!-- Step 1: THINK -->
  <g transform="translate(10, 10)">
    <rect x="0" y="0" width="158" height="155" rx="8" fill="#181920" stroke="#121212" stroke-width="3" filter="url(#build-shadow)"/>
    <rect x="0" y="0" width="158" height="32" rx="6" fill="#fde047" stroke="#121212" stroke-width="3"/>
    <text x="10" y="21" font-size="11" font-weight="900" fill="#121212">01 // THINK</text>
    <text x="12" y="58" font-size="15" font-weight="900" fill="#ffffff">UNDERSTAND</text>
    <text x="12" y="74" font-size="10" font-weight="700" fill="#fde047">THE PROBLEM</text>
    <line x1="12" y1="84" x2="146" y2="84" stroke="#2d3139" stroke-width="1"/>
    <text x="12" y="106" font-size="10.5" font-weight="500" fill="#9ca3af">Identify real friction</text>
    <text x="12" y="122" font-size="10.5" font-weight="500" fill="#9ca3af">and core user pain</text>
    <text x="12" y="138" font-size="10.5" font-weight="500" fill="#9ca3af">before touching code.</text>
  </g>

  <!-- Arrow 1 -->
  <g transform="translate(173, 75)">
    <circle cx="8" cy="8" r="12" fill="#121212"/>
    <path d="M4 8 L12 8 M9 5 L12 8 L9 11" stroke="#ffffff" stroke-width="2" stroke-linecap="round" stroke-linejoin="round"/>
  </g>

  <!-- Step 2: DESIGN -->
  <g transform="translate(193, 10)">
    <rect x="0" y="0" width="158" height="155" rx="8" fill="#181920" stroke="#121212" stroke-width="3" filter="url(#build-shadow)"/>
    <rect x="0" y="0" width="158" height="32" rx="6" fill="#ff90e8" stroke="#121212" stroke-width="3"/>
    <text x="10" y="21" font-size="11" font-weight="900" fill="#121212">02 // DESIGN</text>
    <text x="12" y="58" font-size="15" font-weight="900" fill="#ffffff">ARCHITECT</text>
    <text x="12" y="74" font-size="10" font-weight="700" fill="#ff90e8">THE SYSTEM</text>
    <line x1="12" y1="84" x2="146" y2="84" stroke="#2d3139" stroke-width="1"/>
    <text x="12" y="106" font-size="10.5" font-weight="500" fill="#9ca3af">Figure out the product</text>
    <text x="12" y="122" font-size="10.5" font-weight="500" fill="#9ca3af">flows, data schemas,</text>
    <text x="12" y="138" font-size="10.5" font-weight="500" fill="#9ca3af">and decoupled APIs.</text>
  </g>

  <!-- Arrow 2 -->
  <g transform="translate(356, 75)">
    <circle cx="8" cy="8" r="12" fill="#121212"/>
    <path d="M4 8 L12 8 M9 5 L12 8 L9 11" stroke="#ffffff" stroke-width="2" stroke-linecap="round" stroke-linejoin="round"/>
  </g>

  <!-- Step 3: BUILD -->
  <g transform="translate(376, 10)">
    <rect x="0" y="0" width="158" height="155" rx="8" fill="#181920" stroke="#121212" stroke-width="3" filter="url(#build-shadow)"/>
    <rect x="0" y="0" width="158" height="32" rx="6" fill="#3b82f6" stroke="#121212" stroke-width="3"/>
    <text x="10" y="21" font-size="11" font-weight="900" fill="#ffffff">03 // BUILD</text>
    <text x="12" y="58" font-size="15" font-weight="900" fill="#ffffff">TURN IDEA</text>
    <text x="12" y="74" font-size="10" font-weight="700" fill="#60a5fa">INTO SOFTWARE</text>
    <line x1="12" y1="84" x2="146" y2="84" stroke="#2d3139" stroke-width="1"/>
    <text x="12" y="106" font-size="10.5" font-weight="500" fill="#9ca3af">Ship clean, full-stack</text>
    <text x="12" y="122" font-size="10.5" font-weight="500" fill="#9ca3af">code with modern</text>
    <text x="12" y="138" font-size="10.5" font-weight="500" fill="#9ca3af">frameworks &amp; storage.</text>
  </g>

  <!-- Arrow 3 -->
  <g transform="translate(539, 75)">
    <circle cx="8" cy="8" r="12" fill="#121212"/>
    <path d="M4 8 L12 8 M9 5 L12 8 L9 11" stroke="#ffffff" stroke-width="2" stroke-linecap="round" stroke-linejoin="round"/>
  </g>

  <!-- Step 4: BREAK -->
  <g transform="translate(559, 10)">
    <rect x="0" y="0" width="158" height="155" rx="8" fill="#181920" stroke="#121212" stroke-width="3" filter="url(#build-shadow)"/>
    <rect x="0" y="0" width="158" height="32" rx="6" fill="#fb7185" stroke="#121212" stroke-width="3"/>
    <text x="10" y="21" font-size="11" font-weight="900" fill="#121212">04 // BREAK</text>
    <text x="12" y="58" font-size="15" font-weight="900" fill="#ffffff">TEST LIMITS</text>
    <text x="12" y="74" font-size="10" font-weight="700" fill="#fb7185">&amp; FIX ROOT CAUSE</text>
    <line x1="12" y1="84" x2="146" y2="84" stroke="#2d3139" stroke-width="1"/>
    <text x="12" y="106" font-size="10.5" font-weight="500" fill="#9ca3af">Push edge cases,</text>
    <text x="12" y="122" font-size="10.5" font-weight="500" fill="#9ca3af">find what fails, and</text>
    <text x="12" y="138" font-size="10.5" font-weight="500" fill="#9ca3af">harden against bugs.</text>
  </g>

  <!-- Arrow 4 -->
  <g transform="translate(722, 75)">
    <circle cx="8" cy="8" r="12" fill="#121212"/>
    <path d="M4 8 L12 8 M9 5 L12 8 L9 11" stroke="#ffffff" stroke-width="2" stroke-linecap="round" stroke-linejoin="round"/>
  </g>

  <!-- Step 5: SHIP -->
  <g transform="translate(742, 10)">
    <rect x="0" y="0" width="168" height="155" rx="8" fill="#181920" stroke="#121212" stroke-width="3" filter="url(#build-shadow)"/>
    <rect x="0" y="0" width="168" height="32" rx="6" fill="#4ade80" stroke="#121212" stroke-width="3"/>
    <text x="10" y="21" font-size="11" font-weight="900" fill="#121212">05 // SHIP</text>
    <text x="12" y="58" font-size="15" font-weight="900" fill="#ffffff">DEPLOY TO</text>
    <text x="12" y="74" font-size="10" font-weight="700" fill="#4ade80">REAL USERS</text>
    <line x1="12" y1="84" x2="156" y2="84" stroke="#2d3139" stroke-width="1"/>
    <text x="12" y="106" font-size="10.5" font-weight="500" fill="#9ca3af">Release to production,</text>
    <text x="12" y="122" font-size="10.5" font-weight="500" fill="#9ca3af">monitor performance,</text>
    <text x="12" y="138" font-size="10.5" font-weight="500" fill="#9ca3af">and iterate fast.</text>
  </g>
</svg>