<svg xmlns="http://www.w3.org/2000/svg" viewBox="0 0 440 220" width="100%" height="auto" style="max-width: 440px; font-family: -apple-system, BlinkMacSystemFont, Consolas, 'Segoe UI', monospace;">
  <defs>
    <filter id="p-shadow" x="0%" y="0%" width="120%" height="120%">
      <feDropShadow dx="3" dy="3" stdDeviation="0" flood-color="#121212" flood-opacity="1"/>
    </filter>
  </defs>

  <g transform="translate(6, 6)">
    <rect x="0" y="0" width="424" height="204" rx="8" fill="#15171e" stroke="#121212" stroke-width="3" filter="url(#p-shadow)"/>
    <rect x="0" y="0" width="424" height="30" rx="6" fill="#fde047" stroke="#121212" stroke-width="3"/>
    <circle cx="14" cy="15" r="4.5" fill="#fb7185" stroke="#121212" stroke-width="1"/>
    <circle cx="28" cy="15" r="4.5" fill="#a78bfa" stroke="#121212" stroke-width="1"/>
    <circle cx="42" cy="15" r="4.5" fill="#4ade80" stroke="#121212" stroke-width="1"/>
    <text x="60" y="20" font-size="11" font-weight="900" fill="#121212" letter-spacing="0.5">SKILLSYNC // NLP RESUME MATCHER</text>
    <rect x="306" y="5" width="108" height="20" rx="4" fill="#121212"/>
    <text x="313" y="19" font-size="9" font-weight="800" fill="#fde047">★ IDEATON WINNER</text>

    <!-- Mini UI Mockup -->
    <g transform="translate(14, 42)">
      <rect x="0" y="0" width="396" height="88" rx="6" fill="#1c1e27" stroke="#2e3240" stroke-width="1.5"/>
      <g transform="translate(12, 10)">
        <text x="0" y="12" font-size="9" font-weight="800" fill="#fde047">WEIGHTED NLP TOKENIZER (natural.js)</text>
        <g transform="translate(0, 22)">
          <rect x="0" y="0" width="95" height="18" rx="3" fill="#2f2b18" stroke="#fde047" stroke-width="1"/>
          <text x="6" y="12" font-size="8.5" font-weight="800" fill="#fde047">3x MUST-HAVE</text>
          <rect x="102" y="0" width="85" height="18" rx="3" fill="#252834"/>
          <text x="108" y="12" font-size="8.5" font-weight="700" fill="#9ca3af">1x Preferred</text>
        </g>
        <text x="0" y="56" font-size="9" font-weight="700" fill="#9ca3af">Client-side pdf.js text extraction</text>
        <text x="0" y="70" font-size="9" font-weight="700" fill="#4ade80">Zero keyword-stuffing exploits</text>
      </g>
      <g transform="translate(225, 10)">
        <rect x="0" y="0" width="160" height="66" rx="4" fill="#242735" stroke="#3d4255" stroke-width="1"/>
        <text x="10" y="18" font-size="9" font-weight="800" fill="#4ade80">MATCH RANKING</text>
        <text x="10" y="38" font-size="16" font-weight="900" fill="#ffffff">94.8% <tspan font-size="10" fill="#fde047">TOP FIT</tspan></text>
        <text x="10" y="54" font-size="8.5" font-weight="600" fill="#9ca3af">Sole Dev &amp; Team Lead</text>
      </g>
    </g>

    <text x="14" y="150" font-size="11.5" font-weight="700" fill="#ffffff">NLP-powered resume screening platform with weighted candidate matching.</text>
    <g transform="translate(14, 166)">
      <rect x="0" y="0" width="56" height="20" rx="3" fill="#232630" stroke="#374151" stroke-width="1"/>
      <text x="6" y="14" font-size="8.5" font-weight="800" fill="#e5e7eb">Node.js</text>
      <rect x="62" y="0" width="70" height="20" rx="3" fill="#232630" stroke="#374151" stroke-width="1"/>
      <text x="68" y="14" font-size="8.5" font-weight="800" fill="#e5e7eb">natural.js</text>
      <rect x="138" y="0" width="52" height="20" rx="3" fill="#232630" stroke="#374151" stroke-width="1"/>
      <text x="144" y="14" font-size="8.5" font-weight="800" fill="#e5e7eb">pdf.js</text>
      <rect x="196" y="0" width="56" height="20" rx="3" fill="#232630" stroke="#374151" stroke-width="1"/>
      <text x="202" y="14" font-size="8.5" font-weight="800" fill="#e5e7eb">Chart.js</text>
      <rect x="315" y="0" width="95" height="20" rx="4" fill="#fde047" stroke="#121212" stroke-width="1.5"/>
      <text x="323" y="14" font-size="8.5" font-weight="900" fill="#121212">EXPLORE REPO ↗</text>
    </g>
  </g>
</svg>